<?xml version="1.0" standalone="no"?>
<svg xmlns="http://www.w3.org/2000/svg" xmlns:xlink="http://www.w3.org/1999/xlink" width="1025pt" height="356pt" viewBox="0.00 0.00 1024.67 355.93">
<g id="graph0" class="graph" transform="translate(4,351.92999267578125) scale(1)" data-name="stm32f0308_disco">

<polygon fill="white" stroke="none" points="-4,4 -4,-351.93 1020.67,-351.93 1020.67,4 -4,4" style=""/>
<g id="clust1" class="cluster" data-name="clusterLegend">

<polygon fill="none" stroke="black" points="8,-85.33 8,-339.93 554,-339.93 554,-85.33 8,-85.33" style=""/>
<text text-anchor="middle" x="281" y="-323.33" font-family="Times,serif" font-size="14.00" style="">Legend</text>
</g>
<!-- legendNode0 -->
<g id="node1" class="node" pointer-events="visible" data-name="legendNode0">

<polygon fill="none" stroke="black" points="295.37,-271.18 298.27,-271.28 301.14,-271.43 303.96,-271.62 306.73,-271.87 309.44,-272.16 312.07,-272.5 314.62,-272.88 317.07,-273.31 319.42,-273.78 321.66,-274.29 323.78,-274.85 325.76,-275.44 327.62,-276.07 329.34,-276.74 330.91,-277.44 332.33,-278.17 333.61,-278.93 334.73,-279.72 335.7,-280.54 336.51,-281.38 337.17,-282.24 337.67,-283.12 338.02,-284.02 338.22,-284.93 338.28,-285.85 338.19,-286.78 337.96,-287.72 337.59,-288.66 337.1,-289.6 336.48,-290.54 335.75,-291.48 334.9,-292.41 333.94,-293.33 332.89,-294.25 331.74,-295.14 330.5,-296.02 329.19,-296.88 327.79,-297.72 326.33,-298.54 324.81,-299.33 323.23,-300.09 321.6,-300.83 319.93,-301.53 318.21,-302.19 316.46,-302.82 314.67,-303.42 312.86,-303.97 311.03,-304.48 309.17,-304.96 307.3,-305.38 305.41,-305.77 303.51,-306.1 301.6,-306.4 299.68,-306.64 297.76,-306.84 295.83,-306.98 293.9,-307.08 291.97,-307.13 290.03,-307.13 288.1,-307.08 286.17,-306.98 284.24,-306.84 282.32,-306.64 280.4,-306.4 278.49,-306.1 276.59,-305.77 274.7,-305.38 272.83,-304.96 270.97,-304.48 269.14,-303.97 267.33,-303.42 265.54,-302.82 263.79,-302.19 262.07,-301.53 260.4,-300.83 258.77,-300.09 257.19,-299.33 255.67,-298.54 254.21,-297.72 252.81,-296.88 251.5,-296.02 250.26,-295.14 249.11,-294.25 248.06,-293.33 247.1,-292.41 246.25,-291.48 245.52,-290.54 244.9,-289.6 244.41,-288.66 244.04,-287.72 243.81,-286.78 243.72,-285.85 243.78,-284.93 243.98,-284.02 244.33,-283.12 244.83,-282.24 245.49,-281.38 246.3,-280.54 247.27,-279.72 248.39,-278.93 249.67,-278.17 251.09,-277.44 252.66,-276.74 254.38,-276.07 256.24,-275.44 258.22,-274.85 260.34,-274.29 262.58,-273.78 264.93,-273.31 267.38,-272.88 269.93,-272.5 272.56,-272.16 275.27,-271.87 278.04,-271.62 280.86,-271.43 283.73,-271.28 286.63,-271.18 289.54,-271.13 292.46,-271.13 295.37,-271.18" style=""/>
<text text-anchor="middle" x="291" y="-285.53" font-family="Times,serif" font-size="12.00" style="">Executable</text>
</g>
<!-- legendNode1 -->
<g id="node2" class="node" pointer-events="visible" data-name="legendNode1">

<polygon fill="none" stroke="black" points="129.81,-200.68 129.81,-215.59 96.53,-226.13 49.47,-226.13 16.19,-215.59 16.19,-200.68 49.47,-190.13 96.53,-190.13 129.81,-200.68" style=""/>
<text text-anchor="middle" x="73" y="-204.53" font-family="Times,serif" font-size="12.00" style="">Static Library</text>
</g>
<!-- legendNode0&#45;&gt;legendNode1 -->
<g id="edge1" class="edge" data-name="legendNode0-&gt;legendNode1">

<path fill="none" stroke="black" d="M254.68,-275.47C223.84,-264.66 178.44,-248.6 139,-234.13 132.51,-231.75 125.67,-229.2 118.96,-226.68" style=""/>
<polygon fill="black" stroke="black" points="120.58,-223.55 109.99,-223.29 118.11,-230.1 120.58,-223.55" style=""/>
</g>
<!-- legendNode2 -->
<g id="node3" class="node" pointer-events="visible" data-name="legendNode2">

<polygon fill="none" stroke="black" points="274.09,-200.68 274.09,-215.59 238.3,-226.13 187.7,-226.13 151.91,-215.59 151.91,-200.68 187.7,-190.13 238.3,-190.13 274.09,-200.68" style=""/>
<polygon fill="none" stroke="black" points="278.09,-197.68 278.09,-218.58 238.88,-230.13 187.12,-230.13 147.91,-218.58 147.91,-197.68 187.12,-186.13 238.88,-186.13 278.09,-197.68" style=""/>
<text text-anchor="middle" x="213" y="-204.53" font-family="Times,serif" font-size="12.00" style="">Shared Library</text>
</g>
<!-- legendNode0&#45;&gt;legendNode2 -->
<g id="edge2" class="edge" data-name="legendNode0-&gt;legendNode2">

<path fill="none" stroke="black" d="M274.84,-271.76C265.36,-262.16 253.1,-249.75 242,-238.5" style=""/>
<polygon fill="black" stroke="black" points="244.76,-236.32 235.24,-231.66 239.78,-241.23 244.76,-236.32" style=""/>
</g>
<!-- legendNode3 -->
<g id="node4" class="node" pointer-events="visible" data-name="legendNode3">

<polygon fill="none" stroke="black" points="431.66,-200.68 431.66,-215.59 394.37,-226.13 341.63,-226.13 304.34,-215.59 304.34,-200.68 341.63,-190.13 394.37,-190.13 431.66,-200.68" style=""/>
<polygon fill="none" stroke="black" points="435.65,-197.65 435.65,-218.61 394.92,-230.13 341.08,-230.13 300.35,-218.61 300.35,-197.65 341.08,-186.13 394.92,-186.13 435.65,-197.65" style=""/>
<polygon fill="none" stroke="black" points="439.64,-194.62 439.64,-221.64 395.47,-234.13 340.53,-234.13 296.36,-221.64 296.36,-194.62 340.53,-182.13 395.47,-182.13 439.64,-194.62" style=""/>
<text text-anchor="middle" x="368" y="-204.53" font-family="Times,serif" font-size="12.00" style="">Module Library</text>
</g>
<!-- legendNode0&#45;&gt;legendNode3 -->
<!-- legendNode7 -->
<g id="node8" class="node" pointer-events="visible" data-name="legendNode7">

<polygon fill="none" stroke="black" points="545.65,-226.13 458.35,-226.13 458.35,-190.13 545.65,-190.13 545.65,-226.13" style=""/>
<text text-anchor="middle" x="502" y="-204.53" font-family="Times,serif" font-size="12.00" style="">Custom Target</text>
</g>
<!-- legendNode0&#45;&gt;legendNode7 -->
<!-- legendNode4 -->
<g id="node5" class="node" pointer-events="visible" data-name="legendNode4">

<polygon fill="none" stroke="black" points="170.12,-116.89 93,-129.33 15.88,-116.89 45.34,-96.77 140.66,-96.77 170.12,-116.89" style=""/>
<text text-anchor="middle" x="93" y="-107.73" font-family="Times,serif" font-size="12.00" style="">Interface Library</text>
</g>
<!-- legendNode1&#45;&gt;legendNode4 -->
<g id="edge4" class="edge" data-name="legendNode1-&gt;legendNode4">

<path fill="none" stroke="black" stroke-dasharray="5,2" d="M76.67,-189.74C79.61,-175.81 83.79,-155.99 87.18,-139.9" style=""/>
<polygon fill="black" stroke="black" points="90.54,-140.96 89.18,-130.45 83.69,-139.52 90.54,-140.96" style=""/>
<text text-anchor="middle" x="110.87" y="-151.53" font-family="Times,serif" font-size="14.00" style="">Interface</text>
</g>
<!-- legendNode5 -->
<g id="node6" class="node" pointer-events="visible" data-name="legendNode5">

<polygon fill="none" stroke="black" points="316.28,-111.33 284.14,-129.33 219.86,-129.33 187.72,-111.33 219.86,-93.33 284.14,-93.33 316.28,-111.33" style=""/>
<text text-anchor="middle" x="252" y="-107.73" font-family="Times,serif" font-size="12.00" style="">Object Library</text>
</g>
<!-- legendNode2&#45;&gt;legendNode5 -->
<g id="edge5" class="edge" data-name="legendNode2-&gt;legendNode5">

<path fill="none" stroke="black" stroke-dasharray="1,5" d="M221.66,-186.09C227.2,-172.62 234.46,-154.97 240.48,-140.32" style=""/>
<polygon fill="black" stroke="black" points="243.66,-141.8 244.23,-131.22 237.19,-139.14 243.66,-141.8" style=""/>
<text text-anchor="middle" x="257.83" y="-151.53" font-family="Times,serif" font-size="14.00" style="">Private</text>
</g>
<!-- legendNode6 -->
<g id="node7" class="node" pointer-events="visible" data-name="legendNode6">

<polygon fill="none" stroke="black" points="479.56,-107.33 465.19,-122.55 407,-129.33 348.81,-122.55 334.44,-107.33 374.71,-95.11 439.29,-95.11 479.56,-107.33" style=""/>
<text text-anchor="middle" x="407" y="-107.73" font-family="Times,serif" font-size="12.00" style="">Unknown Library</text>
</g>
<!-- legendNode3&#45;&gt;legendNode6 -->
<g id="edge6" class="edge" data-name="legendNode3-&gt;legendNode6">

<path fill="none" stroke="black" d="M378.45,-181.73C383.85,-168.61 390.43,-152.62 395.91,-139.29" style=""/>
<polygon fill="black" stroke="black" points="399.06,-140.82 399.63,-130.24 392.59,-138.16 399.06,-140.82" style=""/>
</g>
<!-- node0 -->
<g id="node9" class="node" pointer-events="visible" data-name="node0">

<polygon fill="none" stroke="black" points="782,-200.68 782,-215.59 766.18,-226.13 743.82,-226.13 728,-215.59 728,-200.68 743.82,-190.13 766.18,-190.13 782,-200.68" style=""/>
<text text-anchor="middle" x="755" y="-204.53" font-family="Times,serif" font-size="12.00" style="">app</text>
</g>
<!-- node1 -->
<g id="node10" class="node" pointer-events="visible" data-name="node1">

<polygon fill="none" stroke="black" points="693.77,-103.88 693.77,-118.79 655.24,-129.33 600.76,-129.33 562.23,-118.79 562.23,-103.88 600.76,-93.33 655.24,-93.33 693.77,-103.88" style=""/>
<text text-anchor="middle" x="628" y="-107.73" font-family="Times,serif" font-size="12.00" style="">canopennode-od</text>
</g>
<!-- node0&#45;&gt;node1 -->
<g id="edge9" class="edge" data-name="node0-&gt;node1">

<path fill="none" stroke="black" d="M737.34,-193.95C717.4,-179.06 684.54,-154.53 660.04,-136.24" style=""/>
<polygon fill="black" stroke="black" points="662.42,-133.66 652.31,-130.48 658.23,-139.27 662.42,-133.66" style=""/>
</g>
<!-- node2 -->
<g id="node11" class="node" pointer-events="visible" data-name="node2">

<polygon fill="none" stroke="black" points="796.95,-16.43 796.95,-39.9 753.05,-56.5 690.95,-56.5 647.05,-39.9 647.05,-16.43 690.95,0.17 753.05,0.17 796.95,-16.43" style=""/>
<text text-anchor="middle" x="722" y="-31.77" font-family="Times,serif" font-size="12.00" style="">hal</text>
<text text-anchor="middle" x="722" y="-17.37" font-family="Times,serif" font-size="12.00" style="">(hal::framework)</text>
</g>
<!-- node0&#45;&gt;node2 -->
<g id="edge12" class="edge" data-name="node0-&gt;node2">

<path fill="none" stroke="black" d="M751.78,-189.74C746.57,-161.68 736.2,-105.74 729.18,-67.88" style=""/>
<polygon fill="black" stroke="black" points="732.66,-67.44 727.39,-58.25 725.77,-68.72 732.66,-67.44" style=""/>
</g>
<!-- node3 -->
<g id="node12" class="node" pointer-events="visible" data-name="node3">

<polygon fill="none" stroke="black" points="905.74,-103.88 905.74,-118.79 860.2,-129.33 795.8,-129.33 750.26,-118.79 750.26,-103.88 795.8,-93.33 860.2,-93.33 905.74,-103.88" style=""/>
<text text-anchor="middle" x="828" y="-107.73" font-family="Times,serif" font-size="12.00" style="">canopennode-stm32</text>
</g>
<!-- node0&#45;&gt;node3 -->
<g id="edge11" class="edge" data-name="node0-&gt;node3">

<path fill="none" stroke="black" d="M767.72,-190.62C778.81,-176.21 795.11,-155.04 807.96,-138.36" style=""/>
<polygon fill="black" stroke="black" points="810.44,-140.87 813.77,-130.81 804.89,-136.6 810.44,-140.87" style=""/>
</g>
<!-- node4 -->
<g id="node13" class="node" pointer-events="visible" data-name="node4">

<polygon fill="none" stroke="black" points="978,-103.88 978,-118.79 962.18,-129.33 939.82,-129.33 924,-118.79 924,-103.88 939.82,-93.33 962.18,-93.33 978,-103.88" style=""/>
<text text-anchor="middle" x="951" y="-107.73" font-family="Times,serif" font-size="12.00" style="">qpc</text>
</g>
<!-- node0&#45;&gt;node4 -->
<g id="edge13" class="edge" data-name="node0-&gt;node4">

<path fill="none" stroke="black" d="M773.89,-194.9C780.74,-190.66 788.62,-186 796,-182.13 847.25,-155.28 862.39,-153.42 915,-129.33 916.31,-128.73 917.64,-128.12 918.99,-127.5" style=""/>
<polygon fill="black" stroke="black" points="920.39,-130.71 927.97,-123.3 917.42,-124.36 920.39,-130.71" style=""/>
</g>
<!-- node1&#45;&gt;node2 -->
<g id="edge8" class="edge" data-name="node1-&gt;node2">

<path fill="none" stroke="black" d="M647.93,-93.12C657.82,-84.58 670.13,-73.95 681.86,-63.82" style=""/>
<polygon fill="black" stroke="black" points="683.83,-66.75 689.11,-57.56 679.26,-61.45 683.83,-66.75" style=""/>
</g>
<!-- node3&#45;&gt;node2 -->
<g id="edge10" class="edge" data-name="node3-&gt;node2">

<path fill="none" stroke="black" d="M805.26,-92.92C793.58,-83.98 778.96,-72.78 765.24,-62.27" style=""/>
<polygon fill="black" stroke="black" points="767.66,-59.72 757.6,-56.42 763.41,-65.28 767.66,-59.72" style=""/>
</g>
<!-- node5 -->
<g id="node14" class="node" pointer-events="visible" data-name="node5">

<polygon fill="none" stroke="black" points="757.96,-271.18 759.92,-271.28 761.86,-271.43 763.77,-271.62 765.65,-271.87 767.48,-272.16 769.26,-272.5 770.98,-272.88 772.64,-273.31 774.23,-273.78 775.74,-274.29 777.18,-274.85 778.52,-275.44 779.78,-276.07 780.94,-276.74 782,-277.44 782.97,-278.17 783.83,-278.93 784.59,-279.72 785.24,-280.54 785.79,-281.38 786.24,-282.24 786.58,-283.12 786.81,-284.02 786.95,-284.93 786.99,-285.85 786.93,-286.78 786.77,-287.72 786.53,-288.66 786.19,-289.6 785.77,-290.54 785.28,-291.48 784.7,-292.41 784.06,-293.33 783.34,-294.25 782.56,-295.14 781.73,-296.02 780.84,-296.88 779.89,-297.72 778.91,-298.54 777.88,-299.33 776.81,-300.09 775.7,-300.83 774.57,-301.53 773.41,-302.19 772.22,-302.82 771.02,-303.42 769.79,-303.97 768.55,-304.48 767.29,-304.96 766.03,-305.38 764.75,-305.77 763.47,-306.1 762.17,-306.4 760.88,-306.64 759.57,-306.84 758.27,-306.98 756.96,-307.08 755.65,-307.13 754.35,-307.13 753.04,-307.08 751.73,-306.98 750.43,-306.84 749.12,-306.64 747.83,-306.4 746.53,-306.1 745.25,-305.77 743.97,-305.38 742.71,-304.96 741.45,-304.48 740.21,-303.97 738.98,-303.42 737.78,-302.82 736.59,-302.19 735.43,-301.53 734.3,-300.83 733.19,-300.09 732.12,-299.33 731.09,-298.54 730.11,-297.72 729.16,-296.88 728.27,-296.02 727.44,-295.14 726.66,-294.25 725.94,-293.33 725.3,-292.41 724.72,-291.48 724.23,-290.54 723.81,-289.6 723.47,-288.66 723.23,-287.72 723.07,-286.78 723.01,-285.85 723.05,-284.93 723.19,-284.02 723.42,-283.12 723.76,-282.24 724.21,-281.38 724.76,-280.54 725.41,-279.72 726.17,-278.93 727.03,-278.17 728,-277.44 729.06,-276.74 730.22,-276.07 731.48,-275.44 732.82,-274.85 734.26,-274.29 735.77,-273.78 737.36,-273.31 739.02,-272.88 740.74,-272.5 742.52,-272.16 744.35,-271.87 746.23,-271.62 748.14,-271.43 750.08,-271.28 752.04,-271.18 754.01,-271.13 755.99,-271.13 757.96,-271.18" style=""/>
<text text-anchor="middle" x="755" y="-285.53" font-family="Times,serif" font-size="12.00" style="">blinky</text>
</g>
<!-- node5&#45;&gt;node0 -->
<g id="edge14" class="edge" data-name="node5-&gt;node0">

<path fill="none" stroke="black" stroke-dasharray="1,5" d="M755,-270.99C755,-261.32 755,-249 755,-237.9" style=""/>
<polygon fill="black" stroke="black" points="758.5,-238.03 755,-228.03 751.5,-238.03 758.5,-238.03" style=""/>
</g>
<!-- node5&#45;&gt;node5 -->
<g id="edge15" class="edge" data-name="node5-&gt;node5">

<path fill="none" stroke="black" d="M782.37,-295.88C794.4,-296.48 804.74,-294.23 804.74,-289.13 804.74,-286.53 802.06,-284.68 797.83,-283.56" style=""/>
<polygon fill="black" stroke="black" points="798.41,-280.1 788.08,-282.46 797.62,-287.06 798.41,-280.1" style=""/>
</g>
<!-- node6 -->
<g id="node15" class="node" pointer-events="visible" data-name="node6">

<polygon fill="none" stroke="black" points="891.42,-294.69 857,-307.13 822.58,-294.69 835.73,-274.57 878.27,-274.57 891.42,-294.69" style=""/>
<text text-anchor="middle" x="857" y="-285.53" font-family="Times,serif" font-size="12.00" style="">cmsis</text>
</g>
<!-- node7 -->
<g id="node16" class="node" pointer-events="visible" data-name="node7">

<polygon fill="none" stroke="black" points="909.46,-204.13 899.07,-219.35 857,-226.13 814.93,-219.35 804.54,-204.13 833.65,-191.91 880.35,-191.91 909.46,-204.13" style=""/>
<text text-anchor="middle" x="857" y="-204.53" font-family="Times,serif" font-size="12.00" style="">CMSISDSP</text>
</g>
<!-- node6&#45;&gt;node7 -->
<g id="edge16" class="edge" data-name="node6-&gt;node7">

<path fill="none" stroke="black" stroke-dasharray="5,2" d="M857,-274.37C857,-264.32 857,-250.33 857,-237.89" style=""/>
<polygon fill="black" stroke="black" points="860.5,-238.12 857,-228.12 853.5,-238.12 860.5,-238.12" style=""/>
</g>
<!-- node8 -->
<g id="node17" class="node" pointer-events="visible" data-name="node8">

<polygon fill="none" stroke="black" points="1016.84,-294.69 963,-307.13 909.16,-294.69 929.73,-274.57 996.27,-274.57 1016.84,-294.69" style=""/>
<text text-anchor="middle" x="963" y="-285.53" font-family="Times,serif" font-size="12.00" style="">cmsis-core</text>
</g>
</g>
</svg>