<?xml version="1.0" encoding="UTF-8" standalone="no"?>
<!DOCTYPE svg PUBLIC "-//W3C//DTD SVG 1.1//EN"
 "http://www.w3.org/Graphics/SVG/1.1/DTD/svg11.dtd">
<!-- Generated by graphviz version 8.0.5 (20230430.1635)
 -->
<!-- Title: qpc_stm32f072_disco Pages: 1 -->
<svg width="871pt" height="594pt"
 viewBox="0.00 0.00 870.59 593.74" xmlns="http://www.w3.org/2000/svg" xmlns:xlink="http://www.w3.org/1999/xlink">
<g id="graph0" class="graph" transform="scale(1 1) rotate(0) translate(4 589.74)">
<title>qpc_stm32f072_disco</title>
<polygon fill="white" stroke="none" points="-4,4 -4,-589.74 866.59,-589.74 866.59,4 -4,4"/>
<g id="clust1" class="cluster">
<title>clusterLegend</title>
<polygon fill="none" stroke="black" points="8,-323.74 8,-577.74 544,-577.74 544,-323.74 8,-323.74"/>
<text text-anchor="middle" x="276" y="-560.44" font-family="Times,serif" font-size="14.00">Legend</text>
</g>
<!-- legendNode0 -->
<g id="node1" class="node">
<title>legendNode0</title>
<polygon fill="none" stroke="black" points="288.29,-509.29 291.14,-509.39 293.95,-509.54 296.72,-509.73 299.44,-509.98 302.1,-510.27 304.68,-510.61 307.18,-510.99 309.59,-511.42 311.89,-511.89 314.09,-512.4 316.17,-512.96 318.12,-513.55 319.94,-514.18 321.62,-514.85 323.17,-515.55 324.57,-516.28 325.82,-517.04 326.92,-517.84 327.87,-518.65 328.66,-519.49 329.31,-520.35 329.8,-521.23 330.15,-522.13 330.34,-523.04 330.4,-523.96 330.31,-524.89 330.08,-525.83 329.73,-526.77 329.24,-527.71 328.64,-528.66 327.92,-529.59 327.08,-530.52 326.14,-531.45 325.11,-532.36 323.98,-533.25 322.77,-534.13 321.48,-535 320.11,-535.84 318.68,-536.65 317.18,-537.44 315.63,-538.21 314.03,-538.94 312.39,-539.64 310.7,-540.3 308.98,-540.94 307.23,-541.53 305.46,-542.08 303.65,-542.6 301.83,-543.07 300,-543.5 298.14,-543.88 296.28,-544.22 294.4,-544.51 292.52,-544.75 290.63,-544.95 288.74,-545.1 286.85,-545.19 284.95,-545.24 283.05,-545.24 281.15,-545.19 279.26,-545.1 277.37,-544.95 275.48,-544.75 273.6,-544.51 271.72,-544.22 269.86,-543.88 268,-543.5 266.17,-543.07 264.35,-542.6 262.54,-542.08 260.77,-541.53 259.02,-540.94 257.3,-540.3 255.61,-539.64 253.97,-538.94 252.37,-538.21 250.82,-537.44 249.32,-536.65 247.89,-535.84 246.52,-535 245.23,-534.13 244.02,-533.25 242.89,-532.36 241.86,-531.45 240.92,-530.52 240.08,-529.59 239.36,-528.66 238.76,-527.71 238.27,-526.77 237.92,-525.83 237.69,-524.89 237.6,-523.96 237.66,-523.04 237.85,-522.13 238.2,-521.23 238.69,-520.35 239.34,-519.49 240.13,-518.65 241.08,-517.84 242.18,-517.04 243.43,-516.28 244.83,-515.55 246.38,-514.85 248.06,-514.18 249.88,-513.55 251.83,-512.96 253.91,-512.4 256.11,-511.89 258.41,-511.42 260.82,-510.99 263.32,-510.61 265.9,-510.27 268.56,-509.98 271.28,-509.73 274.05,-509.54 276.86,-509.39 279.71,-509.29 282.57,-509.24 285.43,-509.24 288.29,-509.29"/>
<text text-anchor="middle" x="284" y="-522.97" font-family="Times,serif" font-size="12.00">Executable</text>
</g>
<!-- legendNode1 -->
<g id="node2" class="node">
<title>legendNode1</title>
<polygon fill="none" stroke="black" points="126.42,-438.79 126.42,-453.7 93.96,-464.24 48.04,-464.24 15.58,-453.7 15.58,-438.79 48.04,-428.24 93.96,-428.24 126.42,-438.79"/>
<text text-anchor="middle" x="71" y="-441.97" font-family="Times,serif" font-size="12.00">Static Library</text>
</g>
<!-- legendNode0&#45;&gt;legendNode1 -->
<g id="edge1" class="edge">
<title>legendNode0&#45;&gt;legendNode1</title>
<path fill="none" stroke="black" d="M248.38,-513.61C218.14,-502.82 173.63,-486.78 135,-472.24 128.7,-469.87 122.07,-467.33 115.55,-464.81"/>
<polygon fill="black" stroke="black" points="117.07,-461.26 106.48,-460.89 114.53,-467.78 117.07,-461.26"/>
</g>
<!-- legendNode2 -->
<g id="node3" class="node">
<title>legendNode2</title>
<polygon fill="none" stroke="black" points="268.07,-438.79 268.07,-453.7 232.88,-464.24 183.12,-464.24 147.93,-453.7 147.93,-438.79 183.12,-428.24 232.88,-428.24 268.07,-438.79"/>
<polygon fill="none" stroke="black" points="272.07,-435.81 272.07,-456.68 233.47,-468.24 182.53,-468.24 143.93,-456.68 143.93,-435.81 182.53,-424.24 233.47,-424.24 272.07,-435.81"/>
<text text-anchor="middle" x="208" y="-441.97" font-family="Times,serif" font-size="12.00">Shared Library</text>
</g>
<!-- legendNode0&#45;&gt;legendNode2 -->
<g id="edge2" class="edge">
<title>legendNode0&#45;&gt;legendNode2</title>
<path fill="none" stroke="black" d="M268.25,-509.87C259.02,-500.27 247.07,-487.86 236.26,-476.62"/>
<polygon fill="black" stroke="black" points="239.09,-474.47 229.64,-469.69 234.05,-479.33 239.09,-474.47"/>
</g>
<!-- legendNode3 -->
<g id="node4" class="node">
<title>legendNode3</title>
<polygon fill="none" stroke="black" points="423.65,-438.79 423.65,-453.7 386.95,-464.24 335.05,-464.24 298.35,-453.7 298.35,-438.79 335.05,-428.24 386.95,-428.24 423.65,-438.79"/>
<polygon fill="none" stroke="black" points="427.65,-435.78 427.65,-456.71 387.51,-468.24 334.49,-468.24 294.35,-456.71 294.35,-435.78 334.49,-424.24 387.51,-424.24 427.65,-435.78"/>
<polygon fill="none" stroke="black" points="431.65,-432.76 431.65,-459.72 388.08,-472.24 333.92,-472.24 290.35,-459.72 290.35,-432.76 333.92,-420.24 388.08,-420.24 431.65,-432.76"/>
<text text-anchor="middle" x="361" y="-441.97" font-family="Times,serif" font-size="12.00">Module Library</text>
</g>
<!-- legendNode0&#45;&gt;legendNode3 -->
<!-- legendNode7 -->
<g id="node8" class="node">
<title>legendNode7</title>
<polygon fill="none" stroke="black" points="535.88,-464.24 450.12,-464.24 450.12,-428.24 535.88,-428.24 535.88,-464.24"/>
<text text-anchor="middle" x="493" y="-441.97" font-family="Times,serif" font-size="12.00">Custom Target</text>
</g>
<!-- legendNode0&#45;&gt;legendNode7 -->
<!-- legendNode4 -->
<g id="node5" class="node">
<title>legendNode4</title>
<polygon fill="none" stroke="black" points="166.08,-355.31 91,-367.74 15.92,-355.31 44.6,-335.18 137.4,-335.18 166.08,-355.31"/>
<text text-anchor="middle" x="91" y="-345.47" font-family="Times,serif" font-size="12.00">Interface Library</text>
</g>
<!-- legendNode1&#45;&gt;legendNode4 -->
<g id="edge4" class="edge">
<title>legendNode1&#45;&gt;legendNode4</title>
<path fill="none" stroke="black" stroke-dasharray="5,2" d="M74.67,-427.91C77.62,-413.97 81.82,-394.13 85.22,-378.05"/>
<polygon fill="black" stroke="black" points="88.78,-379.16 87.42,-368.65 81.93,-377.71 88.78,-379.16"/>
<text text-anchor="middle" x="108" y="-388.94" font-family="Times,serif" font-size="14.00">Interface</text>
</g>
<!-- legendNode5 -->
<g id="node6" class="node">
<title>legendNode5</title>
<polygon fill="none" stroke="black" points="309.98,-349.74 278.49,-367.74 215.51,-367.74 184.02,-349.74 215.51,-331.74 278.49,-331.74 309.98,-349.74"/>
<text text-anchor="middle" x="247" y="-345.47" font-family="Times,serif" font-size="12.00">Object Library</text>
</g>
<!-- legendNode2&#45;&gt;legendNode5 -->
<g id="edge5" class="edge">
<title>legendNode2&#45;&gt;legendNode5</title>
<path fill="none" stroke="black" stroke-dasharray="1,5" d="M216.85,-423.8C222.46,-410.22 229.76,-392.53 235.77,-377.96"/>
<polygon fill="black" stroke="black" points="239.3,-379.58 239.88,-369 232.83,-376.91 239.3,-379.58"/>
<text text-anchor="middle" x="252.12" y="-388.94" font-family="Times,serif" font-size="14.00">Private</text>
</g>
<!-- legendNode6 -->
<g id="node7" class="node">
<title>legendNode6</title>
<polygon fill="none" stroke="black" points="472.18,-345.74 457.89,-360.97 400,-367.74 342.11,-360.97 327.82,-345.74 367.88,-333.53 432.12,-333.53 472.18,-345.74"/>
<text text-anchor="middle" x="400" y="-345.47" font-family="Times,serif" font-size="12.00">Unknown Library</text>
</g>
<!-- legendNode3&#45;&gt;legendNode6 -->
<g id="edge6" class="edge">
<title>legendNode3&#45;&gt;legendNode6</title>
<path fill="none" stroke="black" d="M371.45,-419.92C376.9,-406.72 383.56,-390.58 389.07,-377.22"/>
<polygon fill="black" stroke="black" points="392.63,-378.78 393.21,-368.2 386.16,-376.11 392.63,-378.78"/>
</g>
<!-- node0 -->
<g id="node9" class="node">
<title>node0</title>
<polygon fill="none" stroke="black" points="737,-438.79 737,-453.7 721.18,-464.24 698.82,-464.24 683,-453.7 683,-438.79 698.82,-428.24 721.18,-428.24 737,-438.79"/>
<text text-anchor="middle" x="710" y="-441.97" font-family="Times,serif" font-size="12.00">app</text>
</g>
<!-- node1 -->
<g id="node10" class="node">
<title>node1</title>
<polygon fill="none" stroke="black" points="682.23,-342.29 682.23,-357.2 644.02,-367.74 589.98,-367.74 551.77,-357.2 551.77,-342.29 589.98,-331.74 644.02,-331.74 682.23,-342.29"/>
<text text-anchor="middle" x="617" y="-345.47" font-family="Times,serif" font-size="12.00">canopennode&#45;od</text>
</g>
<!-- node0&#45;&gt;node1 -->
<g id="edge12" class="edge">
<title>node0&#45;&gt;node1</title>
<path fill="none" stroke="black" d="M695.47,-430.48C681.03,-415.8 658.61,-393.02 641.43,-375.57"/>
<polygon fill="black" stroke="black" points="644.46,-373.64 634.95,-368.97 639.47,-378.55 644.46,-373.64"/>
</g>
<!-- node2 -->
<g id="node11" class="node">
<title>node2</title>
<polygon fill="none" stroke="black" points="739.59,-269.29 739.59,-284.2 694.72,-294.74 631.28,-294.74 586.41,-284.2 586.41,-269.29 631.28,-258.74 694.72,-258.74 739.59,-269.29"/>
<text text-anchor="middle" x="663" y="-272.47" font-family="Times,serif" font-size="12.00">canopennode&#45;stm32</text>
</g>
<!-- node0&#45;&gt;node2 -->
<g id="edge13" class="edge">
<title>node0&#45;&gt;node2</title>
<path fill="none" stroke="black" d="M709.4,-427.81C708.1,-403.73 703.99,-359.23 691,-323.74 688.55,-317.06 685.09,-310.28 681.42,-304.06"/>
<polygon fill="black" stroke="black" points="683.9,-302.43 675.62,-295.83 677.98,-306.16 683.9,-302.43"/>
</g>
<!-- node6 -->
<g id="node15" class="node">
<title>node6</title>
<polygon fill="none" stroke="black" points="792,-342.29 792,-357.2 776.18,-367.74 753.82,-367.74 738,-357.2 738,-342.29 753.82,-331.74 776.18,-331.74 792,-342.29"/>
<text text-anchor="middle" x="765" y="-345.47" font-family="Times,serif" font-size="12.00">qpc</text>
</g>
<!-- node0&#45;&gt;node6 -->
<g id="edge14" class="edge">
<title>node0&#45;&gt;node6</title>
<path fill="none" stroke="black" d="M720.09,-427.91C728.31,-413.79 740.05,-393.61 749.47,-377.43"/>
<polygon fill="black" stroke="black" points="752.97,-379.37 754.98,-368.97 746.92,-375.85 752.97,-379.37"/>
</g>
<!-- node1&#45;&gt;node2 -->
<g id="edge11" class="edge">
<title>node1&#45;&gt;node2</title>
<path fill="none" stroke="black" d="M628.14,-331.56C633.5,-323.27 640.06,-313.15 646.03,-303.94"/>
<polygon fill="black" stroke="black" points="649.47,-306.07 651.97,-295.77 643.59,-302.26 649.47,-306.07"/>
</g>
<!-- node3 -->
<g id="node12" class="node">
<title>node3</title>
<polygon fill="none" stroke="black" points="794.64,-182.24 794.64,-205.38 717.53,-221.74 608.47,-221.74 531.36,-205.38 531.36,-182.24 608.47,-165.87 717.53,-165.87 794.64,-182.24"/>
<text text-anchor="middle" x="663" y="-196.66" font-family="Times,serif" font-size="12.00">stm32f072rb_disco</text>
<text text-anchor="middle" x="663" y="-182.41" font-family="Times,serif" font-size="12.00">(stm32f072rb_disco::framework)</text>
</g>
<!-- node2&#45;&gt;node3 -->
<g id="edge10" class="edge">
<title>node2&#45;&gt;node3</title>
<path fill="none" stroke="black" d="M663,-258.58C663,-251.06 663,-241.91 663,-232.91"/>
<polygon fill="black" stroke="black" points="666.5,-233.14 663,-223.14 659.5,-233.14 666.5,-233.14"/>
</g>
<!-- node4 -->
<g id="node13" class="node">
<title>node4</title>
<polygon fill="none" stroke="black" points="779.14,-89.36 779.14,-112.51 711.11,-128.87 614.89,-128.87 546.86,-112.51 546.86,-89.36 614.89,-73 711.11,-73 779.14,-89.36"/>
<text text-anchor="middle" x="663" y="-103.79" font-family="Times,serif" font-size="12.00">stm32f0xx_hal</text>
<text text-anchor="middle" x="663" y="-89.54" font-family="Times,serif" font-size="12.00">(stm32f0xx_hal::framework)</text>
</g>
<!-- node3&#45;&gt;node4 -->
<g id="edge9" class="edge">
<title>node3&#45;&gt;node4</title>
<path fill="none" stroke="black" d="M663,-165.54C663,-157.55 663,-148.65 663,-140.11"/>
<polygon fill="black" stroke="black" points="666.5,-140.18 663,-130.18 659.5,-140.18 666.5,-140.18"/>
</g>
<!-- node5 -->
<g id="node14" class="node">
<title>node5</title>
<polygon fill="none" stroke="black" points="715.08,-23.56 663,-36 610.92,-23.56 630.81,-3.44 695.19,-3.44 715.08,-23.56"/>
<text text-anchor="middle" x="663" y="-13.72" font-family="Times,serif" font-size="12.00">cmsis&#45;core</text>
</g>
<!-- node4&#45;&gt;node5 -->
<g id="edge8" class="edge">
<title>node4&#45;&gt;node5</title>
<path fill="none" stroke="black" stroke-dasharray="5,2" d="M663,-72.53C663,-64.43 663,-55.54 663,-47.38"/>
<polygon fill="black" stroke="black" points="666.5,-47.47 663,-37.47 659.5,-47.47 666.5,-47.47"/>
</g>
<!-- node7 -->
<g id="node16" class="node">
<title>node7</title>
<polygon fill="none" stroke="black" points="712.88,-509.29 714.79,-509.39 716.68,-509.54 718.54,-509.73 720.37,-509.98 722.15,-510.27 723.89,-510.61 725.57,-510.99 727.18,-511.42 728.73,-511.89 730.21,-512.4 731.6,-512.96 732.91,-513.55 734.13,-514.18 735.27,-514.85 736.3,-515.55 737.24,-516.28 738.08,-517.04 738.82,-517.84 739.46,-518.65 739.99,-519.49 740.43,-520.35 740.76,-521.23 740.99,-522.13 741.12,-523.04 741.16,-523.96 741.1,-524.89 740.95,-525.83 740.71,-526.77 740.38,-527.71 739.98,-528.66 739.49,-529.59 738.93,-530.52 738.3,-531.45 737.61,-532.36 736.85,-533.25 736.03,-534.13 735.17,-535 734.25,-535.84 733.29,-536.65 732.28,-537.44 731.24,-538.21 730.17,-538.94 729.06,-539.64 727.93,-540.3 726.78,-540.94 725.6,-541.53 724.41,-542.08 723.2,-542.6 721.98,-543.07 720.74,-543.5 719.5,-543.88 718.25,-544.22 716.99,-544.51 715.72,-544.75 714.46,-544.95 713.18,-545.1 711.91,-545.19 710.64,-545.24 709.36,-545.24 708.09,-545.19 706.82,-545.1 705.54,-544.95 704.28,-544.75 703.01,-544.51 701.75,-544.22 700.5,-543.88 699.26,-543.5 698.02,-543.07 696.8,-542.6 695.59,-542.08 694.4,-541.53 693.22,-540.94 692.07,-540.3 690.94,-539.64 689.83,-538.94 688.76,-538.21 687.72,-537.44 686.71,-536.65 685.75,-535.84 684.83,-535 683.97,-534.13 683.15,-533.25 682.39,-532.36 681.7,-531.45 681.07,-530.52 680.51,-529.59 680.02,-528.66 679.62,-527.71 679.29,-526.77 679.05,-525.83 678.9,-524.89 678.84,-523.96 678.88,-523.04 679.01,-522.13 679.24,-521.23 679.57,-520.35 680.01,-519.49 680.54,-518.65 681.18,-517.84 681.92,-517.04 682.76,-516.28 683.7,-515.55 684.73,-514.85 685.87,-514.18 687.09,-513.55 688.4,-512.96 689.79,-512.4 691.27,-511.89 692.82,-511.42 694.43,-510.99 696.11,-510.61 697.85,-510.27 699.63,-509.98 701.46,-509.73 703.32,-509.54 705.21,-509.39 707.12,-509.29 709.04,-509.24 710.96,-509.24 712.88,-509.29"/>
<text text-anchor="middle" x="710" y="-522.97" font-family="Times,serif" font-size="12.00">blinky</text>
</g>
<!-- node7&#45;&gt;node0 -->
<g id="edge15" class="edge">
<title>node7&#45;&gt;node0</title>
<path fill="none" stroke="black" stroke-dasharray="1,5" d="M710,-509.1C710,-499.23 710,-486.58 710,-475.3"/>
<polygon fill="black" stroke="black" points="713.5,-475.62 710,-465.62 706.5,-475.62 713.5,-475.62"/>
</g>
<!-- node7&#45;&gt;node7 -->
<g id="edge16" class="edge">
<title>node7&#45;&gt;node7</title>
<path fill="none" stroke="black" d="M736.8,-533.98C748.79,-534.62 759.16,-532.38 759.16,-527.24 759.16,-524.46 756.11,-522.53 751.42,-521.44"/>
<polygon fill="black" stroke="black" points="752.02,-517.89 741.72,-520.4 751.34,-524.85 752.02,-517.89"/>
</g>
<!-- node8 -->
<g id="node17" class="node">
<title>node8</title>
<polygon fill="none" stroke="black" points="843.22,-532.81 810,-545.24 776.78,-532.81 789.47,-512.68 830.53,-512.68 843.22,-532.81"/>
<text text-anchor="middle" x="810" y="-522.97" font-family="Times,serif" font-size="12.00">cmsis</text>
</g>
<!-- node9 -->
<g id="node18" class="node">
<title>node9</title>
<polygon fill="none" stroke="black" points="862.59,-442.24 852.18,-457.47 810,-464.24 767.82,-457.47 757.41,-442.24 786.59,-430.03 833.41,-430.03 862.59,-442.24"/>
<text text-anchor="middle" x="810" y="-441.97" font-family="Times,serif" font-size="12.00">CMSISDSP</text>
</g>
<!-- node8&#45;&gt;node9 -->
<g id="edge17" class="edge">
<title>node8&#45;&gt;node9</title>
<path fill="none" stroke="black" stroke-dasharray="5,2" d="M810,-512.48C810,-502.33 810,-488.16 810,-475.61"/>
<polygon fill="black" stroke="black" points="813.5,-475.71 810,-465.71 806.5,-475.71 813.5,-475.71"/>
</g>
</g>
</svg>
